<?xml version="1.0" encoding="UTF-8" standalone="no"?>
<!-- Created with Inkscape (http://www.inkscape.org/) -->

<svg
   width="720"
   height="720"
   viewBox="0 0 190.5 190.5"
   version="1.1"
   id="svg1"
   xml:space="preserve"
   sodipodi:docname="flor_4svg.svg"
   inkscape:version="1.3.2 (091e20e, 2023-11-25)"
   xmlns:inkscape="http://www.inkscape.org/namespaces/inkscape"
   xmlns:sodipodi="http://sodipodi.sourceforge.net/DTD/sodipodi-0.dtd"
   xmlns="http://www.w3.org/2000/svg"
   xmlns:svg="http://www.w3.org/2000/svg"><sodipodi:namedview
     id="namedview1"
     pagecolor="#ffffff"
     bordercolor="#000000"
     borderopacity="0"
     inkscape:showpageshadow="2"
     inkscape:pageopacity="0.0"
     inkscape:pagecheckerboard="0"
     inkscape:deskcolor="#d1d1d1"
     inkscape:zoom="0.4869345"
     inkscape:cx="339.88144"
     inkscape:cy="523.6844"
     inkscape:window-width="1392"
     inkscape:window-height="847"
     inkscape:window-x="2066"
     inkscape:window-y="106"
     inkscape:window-maximized="0"
     inkscape:current-layer="svg1" /><defs
     id="defs1"><inkscape:path-effect
       effect="bspline"
       id="path-effect2"
       is_visible="true"
       lpeversion="1.3"
       weight="33.333333"
       steps="2"
       helper_size="0"
       apply_no_weight="true"
       apply_with_weight="true"
       only_selected="false"
       uniform="false" /><inkscape:path-effect
       effect="bspline"
       id="path-effect1"
       is_visible="true"
       lpeversion="1.3"
       weight="33.333333"
       steps="2"
       helper_size="0"
       apply_no_weight="true"
       apply_with_weight="true"
       only_selected="false"
       uniform="false" /></defs><path
     style="fill:#ff0000;stroke-width:0.264583"
     d="m 178.7106,140.53918 c -0.0566,-0.87165 -0.16981,-2.61494 -0.21509,-4.34693 -0.0453,-1.732 -0.0226,-3.45262 0.0792,-5.00349 0.10187,-1.55087 0.28299,-2.9319 0.65656,-4.18844 0.37357,-1.25655 0.93957,-2.38854 1.47161,-3.28283 0.53205,-0.89429 1.03013,-1.55085 1.99235,-2.67156 0.96222,-1.1207 2.38853,-2.70549 3.81488,-4.08655 1.42635,-1.38107 2.85265,-2.55833 3.56582,-3.14698 0.71317,-0.58865 0.71317,-0.58865 0.71317,-0.58865 0.24904,0.58865 0.49808,1.1773 0.71316,1.96971 0.21509,0.79242 0.39621,1.78857 0.47545,2.5923 0.0793,0.80374 0.0566,1.41501 0.0453,2.15083 -0.0113,0.73581 -0.0113,1.59612 -0.0226,2.35457 -0.0113,0.75846 -0.034,1.41502 -0.10187,2.21876 -0.0679,0.80373 -0.18112,1.7546 -0.3396,2.6489 -0.15848,0.8943 -0.36224,1.73197 -0.64525,2.49042 -0.283,0.75846 -0.64524,1.43765 -1.08673,2.12819 -0.44149,0.69053 -0.9622,1.39236 -1.70934,2.26402 -0.74714,0.87166 -1.72065,1.91309 -2.68287,2.78475 -0.96222,0.87165 -1.91309,1.57349 -3.02247,2.3093 -1.10938,0.73581 -2.37721,1.50556 -3.01113,1.89045 -0.63393,0.38488 -0.63394,0.38488 -0.69054,-0.48677 z"
     id="path1"
     transform="matrix(6.6400574,0,0,6.6400574,-1128.4891,-749.78059)"
     inkscape:original-d="m 178.7672,141.41083 c -0.1132,-1.7433 -0.2264,-3.48659 -0.33961,-5.22989 0.0226,-1.72069 0.0453,-3.44131 0.0679,-5.16197 0.18112,-1.38108 0.36224,-2.76211 0.54336,-4.14316 0.56602,-1.13204 1.13201,-2.26403 1.69802,-3.39603 0.49809,-0.65658 0.99617,-1.31314 1.49425,-1.96971 1.42637,-1.58484 2.85267,-3.16963 4.27901,-4.75444 1.42636,-1.17732 2.85266,-2.35458 4.279,-3.53188 -3.12442,-1.99238 0,0 0,0 0,0 0.49808,1.1773 0.74712,1.76594 0.18113,0.99619 0.36225,1.99234 0.54337,2.98851 -0.0226,0.6113 -0.0453,1.22257 -0.0679,1.83386 0,0.86034 0,1.72065 0,2.58098 -0.0226,0.65658 -0.0453,1.31314 -0.0679,1.9697 -0.11321,0.95091 -0.2264,1.90178 -0.33961,2.85267 -0.20376,0.83771 -0.40752,1.67538 -0.61128,2.51307 -0.36225,0.67922 -0.72449,1.35841 -1.08673,2.03762 -0.52074,0.70186 -1.04145,1.40369 -1.56218,2.10554 -0.97355,1.04147 -1.94706,2.0829 -2.92059,3.12435 -0.95091,0.70186 -1.90178,1.40369 -2.85266,2.10554 -1.26788,0.76978 -2.53571,1.53953 -3.80356,2.3093 z"
     inkscape:path-effect="#path-effect2"
     inkscape:label="hoja" /></svg>
