<?xml version="1.0" encoding="UTF-8" standalone="no"?>
<!-- Created with Inkscape (http://www.inkscape.org/) -->

<svg
   width="720"
   height="720"
   viewBox="0 0 190.5 190.5"
   version="1.1"
   id="svg1"
   xml:space="preserve"
   sodipodi:docname="flor_3svg.svg"
   inkscape:version="1.3.2 (091e20e, 2023-11-25)"
   xmlns:inkscape="http://www.inkscape.org/namespaces/inkscape"
   xmlns:sodipodi="http://sodipodi.sourceforge.net/DTD/sodipodi-0.dtd"
   xmlns="http://www.w3.org/2000/svg"
   xmlns:svg="http://www.w3.org/2000/svg"><sodipodi:namedview
     id="namedview1"
     pagecolor="#ffffff"
     bordercolor="#000000"
     borderopacity="0"
     inkscape:showpageshadow="2"
     inkscape:pageopacity="0.0"
     inkscape:pagecheckerboard="0"
     inkscape:deskcolor="#d1d1d1"
     inkscape:zoom="0.68862937"
     inkscape:cx="267.19743"
     inkscape:cy="376.10943"
     inkscape:window-width="1392"
     inkscape:window-height="847"
     inkscape:window-x="2066"
     inkscape:window-y="162"
     inkscape:window-maximized="0"
     inkscape:current-layer="svg1" /><defs
     id="defs1"><inkscape:path-effect
       effect="bspline"
       id="path-effect1"
       is_visible="true"
       lpeversion="1.3"
       weight="33.333333"
       steps="2"
       helper_size="0"
       apply_no_weight="true"
       apply_with_weight="true"
       only_selected="false"
       uniform="false" /></defs><path
     style="fill:#ff0000;stroke-width:0.264583"
     d="m 70.495873,109.82212 c -0.296167,0.32018 -0.888503,0.96054 -1.520868,1.73699 -0.632366,0.77645 -1.304729,1.68894 -1.89707,2.54544 -0.592341,0.85649 -1.104621,1.65693 -1.424803,2.38534 -0.320182,0.72842 -0.448252,1.38478 -0.49628,2.00914 -0.04803,0.62436 -0.01601,1.21668 0.112062,1.90508 0.128074,0.6884 0.352195,1.47282 0.664375,2.05716 0.312181,0.58433 0.7124,0.96854 1.208687,1.37678 0.496287,0.40823 1.088613,0.84047 1.672949,1.13664 0.584337,0.29617 1.160649,0.45626 1.785009,0.46426 0.62436,0.008 1.296727,-0.13608 1.993128,-0.41624 0.696401,-0.28016 1.416795,-0.69639 2.073171,-1.20068 0.656377,-0.50429 1.248699,-1.09661 1.632919,-1.769 0.384219,-0.67239 0.560315,-1.4248 0.624351,-2.15322 0.06404,-0.72842 0.01601,-1.4328 -0.152088,-2.04115 -0.168098,-0.60835 -0.456256,-1.12063 -0.79245,-1.74499 -0.336193,-0.62436 -0.720402,-1.36076 -1.136642,-2.08118 -0.416239,-0.72041 -0.864485,-1.4248 -1.320747,-2.07317 -0.456262,-0.64837 -0.920514,-1.24069 -1.376778,-1.64092 -0.456265,-0.40023 -0.904511,-0.60834 -1.128637,-0.7124 -0.224126,-0.10406 -0.224121,-0.10406 -0.520288,0.21612 z"
     id="path1"
     inkscape:path-effect="#path-effect1"
     inkscape:original-d="m 70.79204,109.50194 c -0.592333,0.64036 -1.184669,1.28072 -1.777005,1.92108 -0.672394,0.91254 -1.344761,1.82503 -2.017141,2.73755 -0.512299,0.80047 -1.024578,1.60091 -1.536869,2.40136 -0.128075,0.65638 -0.256143,1.31274 -0.384218,1.96911 0.03202,0.59235 0.06404,1.18467 0.09605,1.77701 0.224131,0.78446 0.448254,1.56888 0.67238,2.35333 0.400235,0.38422 0.800455,0.76843 1.200679,1.15265 0.592349,0.43225 1.184672,0.86449 1.777005,1.29673 0.57634,0.1601 1.152652,0.32019 1.728978,0.48028 0.672394,-0.14409 1.344761,-0.28817 2.017141,-0.43225 0.720424,-0.41624 1.440815,-0.83247 2.161223,-1.2487 0.592346,-0.59235 1.184672,-1.18467 1.777005,-1.77701 0.176104,-0.75244 0.3522,-1.50485 0.528299,-2.25728 -0.04803,-0.70441 -0.09606,-1.40879 -0.144082,-2.11319 -0.288168,-0.5123 -0.576326,-1.02458 -0.864489,-1.53687 -0.384225,-0.73643 -0.768434,-1.47283 -1.152652,-2.20925 -0.448262,-0.70441 -0.896506,-1.4088 -1.34476,-2.1132 -0.464273,-0.59234 -0.928524,-1.18466 -1.392788,-1.777 -0.448263,-0.20812 -0.896506,-0.41624 -1.344761,-0.62435 z"
     inkscape:label="hoja"
     transform="matrix(11.708213,0,0,11.708213,-734.75551,-1279.8345)" /></svg>
